<svg id="Layer_1" data-name="Layer 1" xmlns="http://www.w3.org/2000/svg" xmlns:xlink="http://www.w3.org/1999/xlink" viewBox="0 0 217.5 247.5"><defs><style>.cls-1{fill:url(#linear-gradient);}.cls-2{fill:url(#linear-gradient-2);}.cls-3{fill:#fff;}</style><linearGradient id="linear-gradient" x1="71.33" x2="71.33" y2="17.25" gradientUnits="userSpaceOnUse"><stop offset="0" stop-color="#e77a1c"/><stop offset="1" stop-color="#d24523"/></linearGradient><linearGradient id="linear-gradient-2" x1="65.83" y1="7.39" x2="65.83" y2="57.28" xlink:href="#linear-gradient"/></defs><title>ignis info</title><path d="M73.6,89.9l-3.2-4h1l1.4-.2a1.3,1.3,0,0,0,.7-.6,1.4,1.4,0,0,0,.3-.9,3.1,3.1,0,0,0-.2-.8l-.8-.6-1-.2H69.6v7.3H69V82.1h3.8l.8.5c.3.2.4.5.6.7a2.5,2.5,0,0,1,.1.8,1.6,1.6,0,0,1-.4,1.2,1.8,1.8,0,0,1-.9.8l-.7.2h-.8l2.9,3.5Z" transform="translate(-29.8 -13.4)"/><path d="M79.8,89.9a3.5,3.5,0,0,1-2-.5,4,4,0,0,1-1.4-1.5,3.4,3.4,0,0,1-.6-2,3.9,3.9,0,0,1,.6-2,3.8,3.8,0,0,1,1.4-1.4,3.5,3.5,0,0,1,2-.5,4.5,4.5,0,0,1,1.6.3,3.1,3.1,0,0,1,1.3,1l-.4.3-1.1-.8a3.5,3.5,0,0,0-1.4-.3,2.6,2.6,0,0,0-1.7.5,3.7,3.7,0,0,0-1.3,1.2,3.3,3.3,0,0,0-.4,1.7,3.7,3.7,0,0,0,.4,1.8,3.7,3.7,0,0,0,1.3,1.2,3.4,3.4,0,0,0,1.7.5,2.3,2.3,0,0,0,1.4-.4,2.7,2.7,0,0,0,1.2-.9l.5.3a3.6,3.6,0,0,1-1.4,1.1A3.5,3.5,0,0,1,79.8,89.9Z" transform="translate(-29.8 -13.4)"/><path d="M88.4,86.1a.4.4,0,0,1,.1-.3h.6a.5.5,0,0,1,0,.6h-.6A.4.4,0,0,1,88.4,86.1Zm0,2.5a.4.4,0,0,1,.1-.3h.6a.4.4,0,0,1,.1.3c0,.2,0,.2-.1.3l-.3.2-.3-.2C88.4,88.8,88.4,88.8,88.4,88.6Z" transform="translate(-29.8 -13.4)"/><path d="M97.7,89.9a1.5,1.5,0,0,1-.9-.2l-.9-.5-.5-.7a2.9,2.9,0,0,1-.2-.9V84.3a1.9,1.9,0,0,1,.2-.8,2.2,2.2,0,0,1,.5-.8l.9-.5a1.5,1.5,0,0,1,.9-.2,1.8,1.8,0,0,1,1,.2l.8.5a2.4,2.4,0,0,1,.6.8,1.9,1.9,0,0,1,.2.8v3.3a2.9,2.9,0,0,1-.2.9c-.2.2-.3.5-.6.7l-.8.5A1.8,1.8,0,0,1,97.7,89.9Zm0-7.4-.7.2-.7.4a2.1,2.1,0,0,0-.4.6,1.4,1.4,0,0,0-.2.6v3.3a1.4,1.4,0,0,0,.2.6,1.3,1.3,0,0,0,.4.6l.7.4.7.2.8-.2.6-.4c.2-.2.4-.3.5-.6a1.3,1.3,0,0,0,.1-.6V84.3a1.3,1.3,0,0,0-.1-.6l-.5-.6-.6-.4Z" transform="translate(-29.8 -13.4)"/><path d="M104.6,89.9l-1.3-.2a2.4,2.4,0,0,1-.9-.8,1.4,1.4,0,0,1-.4-1h.6a.9.9,0,0,0,.1.5l.4.5a2.5,2.5,0,0,0,1.5.5,2.3,2.3,0,0,0,1.1-.3,1.3,1.3,0,0,0,.7-.6,1.6,1.6,0,0,0,.3-.9,1.4,1.4,0,0,0-.2-.6,2.1,2.1,0,0,0-.4-.6l-.7-.4h-3.1l.3-3.8h4.6v.5h-4.1l-.2,2.7h1.7a2.8,2.8,0,0,1,1.3.3,3.9,3.9,0,0,1,1,.8,2.6,2.6,0,0,1,0,2.4,3.9,3.9,0,0,1-1,.8A2.8,2.8,0,0,1,104.6,89.9Z" transform="translate(-29.8 -13.4)"/><path d="M108.6,89.9l4.6-7.8h.6l-4.5,7.8Z" transform="translate(-29.8 -13.4)"/><path d="M118.1,89.9a1.5,1.5,0,0,1-.9-.2l-.9-.5-.5-.7a2.9,2.9,0,0,1-.2-.9V84.3a1.9,1.9,0,0,1,.2-.8,2.2,2.2,0,0,1,.5-.8l.9-.5a1.5,1.5,0,0,1,.9-.2,1.8,1.8,0,0,1,1,.2l.8.5a2.4,2.4,0,0,1,.6.8,1.9,1.9,0,0,1,.2.8v3.3a2.9,2.9,0,0,1-.2.9c-.2.2-.3.5-.6.7l-.8.5A1.8,1.8,0,0,1,118.1,89.9Zm0-7.4-.7.2-.7.4a2.1,2.1,0,0,0-.4.6,1.4,1.4,0,0,0-.2.6v3.3a1.4,1.4,0,0,0,.2.6,1.3,1.3,0,0,0,.4.6l.7.4.7.2.8-.2.6-.4c.2-.2.4-.3.5-.6a1.3,1.3,0,0,0,.1-.6V84.3a1.3,1.3,0,0,0-.1-.6l-.5-.6-.6-.4Z" transform="translate(-29.8 -13.4)"/><path d="M125,89.9a1.8,1.8,0,0,1-1-.2l-.8-.5-.6-.7a2.9,2.9,0,0,1-.2-.9V84.3a1.9,1.9,0,0,1,.2-.8l.6-.8.8-.5a1.6,1.6,0,0,1,1-.2,1.5,1.5,0,0,1,.9.2l.9.5a2.2,2.2,0,0,1,.5.8,1.1,1.1,0,0,1,.2.8v3.3a1.5,1.5,0,0,1-.2.9l-.5.7-.9.5A1.5,1.5,0,0,1,125,89.9Zm0-7.4-.8.2-.6.4-.5.6a1.3,1.3,0,0,0-.1.6v3.3a1.3,1.3,0,0,0,.1.6c.1.3.3.4.5.6l.6.4.8.2.7-.2.7-.4a1.3,1.3,0,0,0,.4-.6,1.4,1.4,0,0,0,.2-.6V84.3a1.4,1.4,0,0,0-.2-.6l-.4-.6-.7-.4Z" transform="translate(-29.8 -13.4)"/><path d="M129.4,86.2v-.5h4.7v.5Z" transform="translate(-29.8 -13.4)"/><path d="M135.6,84.5l2.8-2.7v8.1h-.5V83.1l-2.3,2.2Z" transform="translate(-29.8 -13.4)"/><path d="M145.2,89.3v.6h-4.7l1.5-2.1,1.9-2.5a2.2,2.2,0,0,0,.4-1.3v-.2a1.4,1.4,0,0,0-.6-1,1.6,1.6,0,0,0-.9-.3h-.4a3.8,3.8,0,0,0-1.3.9l-.2.3h-.1l-.5-.3.4-.4.7-.7.9-.4h.5a2.8,2.8,0,0,1,1.2.4,2.2,2.2,0,0,1,.9,1.4V84a2.4,2.4,0,0,1-.6,1.5l-2.7,3.8Z" transform="translate(-29.8 -13.4)"/><path d="M149.5,89.9a1.8,1.8,0,0,1-1-.2l-.8-.5-.6-.7a2.9,2.9,0,0,1-.2-.9V84.3a1.9,1.9,0,0,1,.2-.8l.6-.8.8-.5a1.8,1.8,0,0,1,1-.2,1.5,1.5,0,0,1,.9.2l.9.5a2.2,2.2,0,0,1,.5.8,1.1,1.1,0,0,1,.2.8v3.3a1.5,1.5,0,0,1-.2.9l-.5.7-.9.5A1.5,1.5,0,0,1,149.5,89.9Zm0-7.4-.8.2-.6.4-.5.6a1.3,1.3,0,0,0-.1.6v3.3a1.3,1.3,0,0,0,.1.6c.1.3.3.4.5.6l.6.4.8.2.7-.2.7-.4a1.3,1.3,0,0,0,.4-.6,1.4,1.4,0,0,0,.2-.6V84.3a1.4,1.4,0,0,0-.2-.6l-.4-.6-.7-.4Z" transform="translate(-29.8 -13.4)"/><path d="M156.3,89.9a1.5,1.5,0,0,1-.9-.2l-.9-.5-.5-.7a2.9,2.9,0,0,1-.2-.9V84.3a1.9,1.9,0,0,1,.2-.8,2.2,2.2,0,0,1,.5-.8l.9-.5a1.5,1.5,0,0,1,.9-.2,1.8,1.8,0,0,1,1,.2l.8.5a1.6,1.6,0,0,1,.6.8,1.9,1.9,0,0,1,.2.8v3.3a2.9,2.9,0,0,1-.2.9,1.9,1.9,0,0,1-.6.7l-.8.5A1.8,1.8,0,0,1,156.3,89.9Zm0-7.4-.7.2-.7.4a2.1,2.1,0,0,0-.4.6,1.4,1.4,0,0,0-.2.6v3.3a1.4,1.4,0,0,0,.2.6,1.3,1.3,0,0,0,.4.6l.7.4.7.2.8-.2.6-.4c.2-.2.4-.3.5-.6a1.3,1.3,0,0,0,.1-.6V84.3a1.3,1.3,0,0,0-.1-.6l-.5-.6-.6-.4Z" transform="translate(-29.8 -13.4)"/><path d="M165.4,89.3v.6h-4.8l1.5-2.1,1.9-2.5a2.4,2.4,0,0,0,.5-1.3v-.2a1.3,1.3,0,0,0-.7-1,1.1,1.1,0,0,0-.8-.3h-.4a3,3,0,0,0-1.3.9c-.1.1-.2.2-.2.3h-.2l-.4-.3.3-.4.8-.7.9-.4h.5a2.8,2.8,0,0,1,1.2.4,2.5,2.5,0,0,1,.8,1.4V84a2.3,2.3,0,0,1-.5,1.5l-2.8,3.8Z" transform="translate(-29.8 -13.4)"/><path d="M171.5,86.4a2.8,2.8,0,0,1,.4,1.3,1.7,1.7,0,0,1-.4,1.1,2.4,2.4,0,0,1-.9.8,3,3,0,0,1-2.6,0,2.4,2.4,0,0,1-.9-.8,1.7,1.7,0,0,1-.4-1.1,2,2,0,0,1,.4-1.3,3.1,3.1,0,0,1,1.1-.8,2.3,2.3,0,0,1-.7-.7,1.6,1.6,0,0,1-.3-.9,1.7,1.7,0,0,1,.3-1,2,2,0,0,1,.8-.8l1-.2,1,.2a2,2,0,0,1,.8.8,1.7,1.7,0,0,1,.3,1,1.6,1.6,0,0,1-.3.9,2.3,2.3,0,0,1-.7.7A3.1,3.1,0,0,1,171.5,86.4Zm-1.2,2.7a1.6,1.6,0,0,0,.8-.6,1.9,1.9,0,0,0,.2-.8,2.9,2.9,0,0,0-.2-.9,1.6,1.6,0,0,0-.8-.6,1.8,1.8,0,0,0-2,0,1.6,1.6,0,0,0-.8.6,1.5,1.5,0,0,0-.2.9,1.1,1.1,0,0,0,.2.8,1.6,1.6,0,0,0,.8.6,1.8,1.8,0,0,0,2,0ZM168,84.7a1.2,1.2,0,0,0,.5.5l.8.2.8-.2a1.2,1.2,0,0,0,.5-.5,1,1,0,0,0,.2-.7,1.2,1.2,0,0,0-.2-.8c-.1-.2-.3-.3-.5-.5l-.8-.2-.8.2c-.2.2-.4.3-.5.5a1.2,1.2,0,0,0-.2.8A1,1,0,0,0,168,84.7Z" transform="translate(-29.8 -13.4)"/><path d="M178.4,82.1l-4.1,7.8h-.6l3.8-7.3h-4.7v-.5Z" transform="translate(-29.8 -13.4)"/><path d="M185.2,87.9l-1,2h-.6l3.7-7.9,3.5,7.9h-.6l-.9-2Zm2.1-4.6-1.9,4h3.7Z" transform="translate(-29.8 -13.4)"/><path d="M201,89.3v.6h-4.7l1.5-2.1,1.9-2.5a2.2,2.2,0,0,0,.4-1.3v-.2a1,1,0,0,0-.6-1,1.4,1.4,0,0,0-.9-.3h-.4a5.1,5.1,0,0,0-1.3.9l-.2.3h-.1l-.4-.3.3-.4a2.7,2.7,0,0,1,.8-.7,2,2,0,0,1,.8-.4h.5a2.8,2.8,0,0,1,1.2.4,2.2,2.2,0,0,1,.9,1.4V84a3,3,0,0,1-.5,1.5c-1,1.4-2,2.6-2.8,3.8Z" transform="translate(-29.8 -13.4)"/><path d="M205.3,89.9a1.5,1.5,0,0,1-.9-.2,2.6,2.6,0,0,1-.9-.5l-.5-.7a1.5,1.5,0,0,1-.2-.9V84.3a1.1,1.1,0,0,1,.2-.8,2.2,2.2,0,0,1,.5-.8,2.6,2.6,0,0,1,.9-.5,2.1,2.1,0,0,1,1.8,0,2.6,2.6,0,0,1,.9.5l.6.8a1.9,1.9,0,0,1,.2.8v3.3a2.9,2.9,0,0,1-.2.9l-.6.7a2.6,2.6,0,0,1-.9.5A1.5,1.5,0,0,1,205.3,89.9Zm0-7.4-.7.2-.7.4a2.1,2.1,0,0,0-.4.6,1.4,1.4,0,0,0-.2.6v3.3a1.4,1.4,0,0,0,.2.6,1.3,1.3,0,0,0,.4.6l.7.4.7.2.8-.2.6-.4a1.3,1.3,0,0,0,.4-.6,1.4,1.4,0,0,0,.2-.6V84.3a1.3,1.3,0,0,0-.1-.6l-.5-.6-.6-.4Z" transform="translate(-29.8 -13.4)"/><path d="M29.8,104.3V96.5h.6v7.8Z" transform="translate(-29.8 -13.4)"/><path d="M40.3,104.3V98.1L36.9,103l-3.5-4.9v6.2h-.6V96.4l4.1,5.7,4-5.7v7.9Z" transform="translate(-29.8 -13.4)"/><path d="M50.7,104.3V98.1L47.2,103l-3.5-4.9v6.2h-.5V96.4l4,5.7,4-5.7v7.9Z" transform="translate(-29.8 -13.4)"/><path d="M53.5,104.3V96.5h5.1V97H54.1v3.1h3.5v.5H54.1v3.1h4.5v.6Z" transform="translate(-29.8 -13.4)"/><path d="M63.7,104.3a2.2,2.2,0,0,1-1.1-.2l-1-.7a1.8,1.8,0,0,1-.6-.9,2.5,2.5,0,0,1-.2-1.2V96.5h.5v4.8a3.6,3.6,0,0,0,.2,1,3.5,3.5,0,0,0,.5.8l.8.5.9.2,1-.2.8-.5.5-.8a3.6,3.6,0,0,0,.2-1V96.5h.5v4.8a5,5,0,0,1-.2,1.2,4.6,4.6,0,0,1-1.6,1.6A2.5,2.5,0,0,1,63.7,104.3Z" transform="translate(-29.8 -13.4)"/><path d="M74,100.9a2.1,2.1,0,0,1,.4,1.2,3.1,3.1,0,0,1-.2.8c-.2.2-.3.5-.6.7l-.8.5-1,.2H68.9V96.5h2.2a2.6,2.6,0,0,1,1.8.6c.2.1.3.4.4.6a1.9,1.9,0,0,1,.2.7,2,2,0,0,1-.2.9c-.2.3-.3.5-.6.6H73A3.9,3.9,0,0,1,74,100.9Zm-4.6-1.1h2.7a1.3,1.3,0,0,0,.6-.5,1,1,0,0,0,.3-.8,2.5,2.5,0,0,0-.2-.7,1.8,1.8,0,0,0-.7-.5l-1-.2H69.4Zm3.4,3.7.8-.6a3.1,3.1,0,0,0,.2-.8,1.4,1.4,0,0,0-.3-.9,1.8,1.8,0,0,0-.7-.5,2.9,2.9,0,0,0-1.4-.3h-2v3.3h2.4Z" transform="translate(-29.8 -13.4)"/><path d="M76.2,104.3V96.5h.5v7.2h4.4v.6Z" transform="translate(-29.8 -13.4)"/><path d="M83.2,104.3V96.5h5V97H83.7v3.1h3.5v.5H83.7v3.1h4.5v.6Z" transform="translate(-29.8 -13.4)"/><path d="M101.9,104.3V98.1L98.4,103l-3.5-4.9v6.2h-.5V96.4l4,5.7,4-5.7v7.9Z" transform="translate(-29.8 -13.4)"/><path d="M105.6,102.3l-.9,2h-.6l3.7-7.9,3.5,7.9h-.6l-.9-2Zm2.2-4.6-1.9,4h3.7Z" transform="translate(-29.8 -13.4)"/><path d="M117.6,104.3l-3.3-4h1l1.4-.2a1.3,1.3,0,0,0,.7-.6,1.4,1.4,0,0,0,.3-.9,3.1,3.1,0,0,0-.2-.8l-.7-.6-1.1-.2h-2.2v7.3h-.6V96.5h3.8l.8.5a1.9,1.9,0,0,1,.6.7,3.1,3.1,0,0,1,.2.8,2.1,2.1,0,0,1-.4,1.2,2.5,2.5,0,0,1-1,.8l-.7.2h-.7l2.8,3.5Z" transform="translate(-29.8 -13.4)"/><path d="M120.2,104.3,124,97h-4.1v-.5h5l-3.8,7.2h4.1v.6Z" transform="translate(-29.8 -13.4)"/><path d="M127.2,104.3V96.5h5V97h-4.5v3.1h3.5v.5h-3.5v3.1h4.5v.6Z" transform="translate(-29.8 -13.4)"/><path d="M134.3,104.3V96.5h.5v7.2h4.4v.6Z" transform="translate(-29.8 -13.4)"/><path d="M147.3,104.3h-.7l-2.8-3.4-2.6,3.5V96.5h.6v6.2l4.5-6.2h.7l-2.9,4Z" transform="translate(-29.8 -13.4)"/><path d="M150.1,102.3l-1,2h-.6l3.7-7.9,3.5,7.9h-.6l-.9-2Zm2.1-4.6-1.9,4H154Z" transform="translate(-29.8 -13.4)"/><path d="M159.6,104.3h-2.2V96.5h2.2a3.3,3.3,0,0,1,1.5.3,5.7,5.7,0,0,1,1.3.8,3.3,3.3,0,0,1,.7,1.3,3.2,3.2,0,0,1,.3,1.4,3.3,3.3,0,0,1-.3,1.5,3.3,3.3,0,0,1-.7,1.3,5.7,5.7,0,0,1-1.3.8A3.3,3.3,0,0,1,159.6,104.3Zm-1.7-.6h1.7a3,3,0,0,0,2.4-1,2.4,2.4,0,0,0,.6-1.1,2.7,2.7,0,0,0,.2-1.3,2.5,2.5,0,0,0-.2-1.2A2.4,2.4,0,0,0,162,98a3,3,0,0,0-2.4-1h-1.7Z" transform="translate(-29.8 -13.4)"/><path d="M169.7,102h5.6v.6h-1.9v1.7h-.6v-1.7h-4.1l4.1-6.1h.6v5.7h-.6V97.3Z" transform="translate(-29.8 -13.4)"/><path d="M176.8,104.3V96.5h5.1V97h-4.5v3.1h3.5v.5h-3.5v3.1h4.5v.6Z" transform="translate(-29.8 -13.4)"/><path d="M188,104.3V96.5h5.1V97h-4.5v3.1h3.5v.5h-3.5v3.1h4.5v.6Z" transform="translate(-29.8 -13.4)"/><path d="M201.7,96.5V97h-3.1v7.3H198V97h-3.1v-.5Z" transform="translate(-29.8 -13.4)"/><path d="M203.4,102.3l-1,2h-.6l3.7-7.9,3.5,7.9h-.6l-.9-2Zm2.1-4.6-1.9,4h3.7Z" transform="translate(-29.8 -13.4)"/><path d="M216.6,104.3h-2.8a3.6,3.6,0,0,1-2-.6,3.8,3.8,0,0,1-1.4-1.4,4.3,4.3,0,0,1,0-4,3.8,3.8,0,0,1,1.4-1.4,3.5,3.5,0,0,1,2-.5,4.5,4.5,0,0,1,1.6.3,3.8,3.8,0,0,1,1.3.9l-.4.4a3.6,3.6,0,0,0-1.2-.8,2.8,2.8,0,0,0-1.3-.3,3.4,3.4,0,0,0-1.7.5,3.4,3.4,0,0,0-1.2,1.2,3.1,3.1,0,0,0,0,3.4,3.4,3.4,0,0,0,1.2,1.2,2.6,2.6,0,0,0,1.7.5h2.3v-2.8h-2.6v-.5h3.1Z" transform="translate(-29.8 -13.4)"/><path d="M218.9,104.3V96.5H224V97h-4.5v3.1H223v.5h-3.5v3.1H224v.6Z" transform="translate(-29.8 -13.4)"/><path d="M230.7,97.9v6.4h-.6V96.4l5.4,6.4V96.5h.6v7.9Z" transform="translate(-29.8 -13.4)"/><path d="M237.7,98.9l2.9-2.7v8.1H240V97.5l-2.3,2.2Z" transform="translate(-29.8 -13.4)"/><path d="M247.4,103.7v.6h-4.8l1.5-2.1,1.9-2.5a2.4,2.4,0,0,0,.5-1.3v-.2a1.3,1.3,0,0,0-.7-1,1.1,1.1,0,0,0-.8-.3h-.4a3,3,0,0,0-1.3.9l-.3.3h-.1l-.4-.3.3-.4.8-.7.9-.4h.5a2.8,2.8,0,0,1,1.2.4,2.5,2.5,0,0,1,.8,1.4v.3a2.3,2.3,0,0,1-.5,1.5l-2.8,3.8Z" transform="translate(-29.8 -13.4)"/><path d="M47.7,118.7v-7.8h5v.5H48.2v3.1h3.5v.5H48.2v3.1h4.5v.6Z" transform="translate(-29.8 -13.4)"/><path d="M55.3,112.3v6.4h-.5v-7.9l5.4,6.4v-6.3h.5v7.9Z" transform="translate(-29.8 -13.4)"/><path d="M66.9,118.7v-7.8h5v.5H67.4v3.1H71v.5H67.4v3.7Z" transform="translate(-29.8 -13.4)"/><path d="M73.6,116.7l-.9,2h-.6l3.7-7.9,3.4,7.9h-.6l-.8-2Zm2.1-4.6-1.8,4h3.6Z" transform="translate(-29.8 -13.4)"/><path d="M84.1,118.7a3.5,3.5,0,0,1-2-.5,5.4,5.4,0,0,1-1.5-1.5,4.2,4.2,0,0,1-.5-2,4.9,4.9,0,0,1,.5-2,5,5,0,0,1,1.5-1.4,3.5,3.5,0,0,1,2-.5,4.5,4.5,0,0,1,1.6.3,3.1,3.1,0,0,1,1.3,1l-.4.3a3.6,3.6,0,0,0-1.2-.8,3.1,3.1,0,0,0-1.3-.3,2.6,2.6,0,0,0-1.7.5,3,3,0,0,0-1.3,1.2,3.3,3.3,0,0,0-.4,1.7,3.7,3.7,0,0,0,.4,1.8,3,3,0,0,0,1.3,1.2,3.4,3.4,0,0,0,1.7.5,2.3,2.3,0,0,0,1.4-.4,2.7,2.7,0,0,0,1.2-.9l.4.3a2.8,2.8,0,0,1-1.3,1.1A3.5,3.5,0,0,1,84.1,118.7Z" transform="translate(-29.8 -13.4)"/><path d="M88.9,118.7v-7.8h5v.5H89.4v3.1h3.5v.5H89.4v3.1h4.5v.6Z" transform="translate(-29.8 -13.4)"/><path d="M100.1,118.7v-7.8h.5v7.2H105v.6Z" transform="translate(-29.8 -13.4)"/><path d="M108.8,115.4l3.1-4.5h.7l-3.5,5.1v2.7h-.5V116l-3.5-5.1h.7Z" transform="translate(-29.8 -13.4)"/><path d="M117.2,118.7a3.5,3.5,0,0,1-2-.5,4,4,0,0,1-1.4-1.5,3.3,3.3,0,0,1-.5-2,3.7,3.7,0,0,1,.5-2,3.8,3.8,0,0,1,1.4-1.4,3.5,3.5,0,0,1,2-.5,4.1,4.1,0,0,1,1.6.3,2.6,2.6,0,0,1,1.3,1l-.4.3-1.1-.8a3.2,3.2,0,0,0-1.4-.3,2.6,2.6,0,0,0-1.7.5,3.4,3.4,0,0,0-1.2,1.2,3.4,3.4,0,0,0-.5,1.7,3.7,3.7,0,0,0,.5,1.8,3.4,3.4,0,0,0,1.2,1.2,3.4,3.4,0,0,0,1.7.5,2.8,2.8,0,0,0,1.5-.4l1.2-.9.4.3a3,3,0,0,1-1.4,1.1A3.3,3.3,0,0,1,117.2,118.7Z" transform="translate(-29.8 -13.4)"/><path d="M122,118.7v-7.8h5.1v.5h-4.5v3.1h3.5v.5h-3.5v3.1h4.5v.6Z" transform="translate(-29.8 -13.4)"/><path d="M129.1,118.7v-7.8h5.1v.5h-4.5v3.1h3.5v.5h-3.5v3.1h4.5v.6Z" transform="translate(-29.8 -13.4)"/><path d="M145.4,115.6a1.9,1.9,0,0,1,.3,1,1.1,1.1,0,0,1-.2.8,1.3,1.3,0,0,1-.6.7,3.4,3.4,0,0,1-2,.6h-1a1.9,1.9,0,0,1-.9-.5,1.8,1.8,0,0,1-.9-1.2l.6-.3a1.3,1.3,0,0,0,.6,1.1l.7.4h.9a2.5,2.5,0,0,0,1.6-.5,1.3,1.3,0,0,0,.7-1.1,1.1,1.1,0,0,0-.3-.7,1,1,0,0,0-.6-.5,3.4,3.4,0,0,0-1.4-.4h-.6l-.9-.2a2.4,2.4,0,0,1-.9-.8,1.4,1.4,0,0,1-.4-1,2.9,2.9,0,0,1,.2-.9l.7-.6a1.9,1.9,0,0,1,.9-.5h1a3.4,3.4,0,0,1,2,.6,2,2,0,0,1,.8,1.2l-.5.3a1.4,1.4,0,0,0-.2-.6,1.2,1.2,0,0,0-.5-.5l-.7-.4H142l-.7.4a1.2,1.2,0,0,0-.5.5,1.3,1.3,0,0,0-.1.6,1.9,1.9,0,0,0,.2.7,1.3,1.3,0,0,0,.7.6l.6.2h1.2l.6.2.6.2A2.7,2.7,0,0,1,145.4,115.6Z" transform="translate(-29.8 -13.4)"/><path d="M148.4,116.7l-1,2h-.6l3.7-7.9,3.5,7.9h-.6l-.9-2Zm2.1-4.6-1.9,4h3.7Z" transform="translate(-29.8 -13.4)"/><path d="M155.7,118.7v-7.8h.5v7.2h4.4v.6Z" transform="translate(-29.8 -13.4)"/><path d="M163.7,116.7l-.9,2h-.6l3.6-7.9,3.5,7.9h-.6l-.9-2Zm2.1-4.6-1.9,4h3.7Z" transform="translate(-29.8 -13.4)"/><path d="M176.2,115h-4.7v3.7H171v-7.8h.5v3.6h4.7v-3.6h.5v7.8h-.5Z" transform="translate(-29.8 -13.4)"/><path d="M182.9,118.7v-7.8h5v.5h-4.5v3.1h3.5v.5h-3.5v3.1h4.5v.6Z" transform="translate(-29.8 -13.4)"/><path d="M190,118.7v-7.8h.5v7.2h4.4v.6Z" transform="translate(-29.8 -13.4)"/><path d="M199.2,118.7H197v-7.8h2.2a3.7,3.7,0,0,1,1.5.3,5.7,5.7,0,0,1,1.3.8,5.4,5.4,0,0,1,.7,1.3,3.2,3.2,0,0,1,.3,1.4,3.3,3.3,0,0,1-.3,1.5,5.4,5.4,0,0,1-.7,1.3,5.7,5.7,0,0,1-1.3.8A3.7,3.7,0,0,1,199.2,118.7Zm-1.7-.6h1.7a3,3,0,0,0,2.4-1,3.9,3.9,0,0,0,.6-1.1,4,4,0,0,0,0-2.5,3.9,3.9,0,0,0-.6-1.1,3.1,3.1,0,0,0-2.4-1h-1.7Z" transform="translate(-29.8 -13.4)"/><path d="M207,118.7h-2.2v-7.8H207a4.1,4.1,0,0,1,1.6.3l1.2.8a3.3,3.3,0,0,1,.7,1.3,3.2,3.2,0,0,1,.3,1.4,3.3,3.3,0,0,1-.3,1.5,3.3,3.3,0,0,1-.7,1.3l-1.2.8A4.2,4.2,0,0,1,207,118.7Zm-1.7-.6H207a3,3,0,0,0,2.4-1,2.4,2.4,0,0,0,.6-1.1,2.8,2.8,0,0,0,.3-1.3,2.7,2.7,0,0,0-.3-1.2,2.4,2.4,0,0,0-.6-1.1,3,3,0,0,0-2.4-1h-1.7Z" transform="translate(-29.8 -13.4)"/><path d="M212.8,118.7v-7.8h.5v7.8Z" transform="translate(-29.8 -13.4)"/><path d="M216.3,112.3v6.4h-.5v-7.9l5.4,6.4v-6.3h.5v7.9Z" transform="translate(-29.8 -13.4)"/><path d="M224,118.7v-7.8h5.1v.5h-4.5v3.1h3.5v.5h-3.5v3.1h4.5v.6Z" transform="translate(-29.8 -13.4)"/><path d="M98.1,133.1a1.6,1.6,0,0,1-1-.2l-.8-.5c-.3-.2-.4-.5-.6-.7a2.9,2.9,0,0,1-.2-.9v-3.3a1.9,1.9,0,0,1,.2-.8,2.4,2.4,0,0,1,.6-.8l.8-.5a1.6,1.6,0,0,1,1-.2,1.5,1.5,0,0,1,.9.2l.8.5a1.6,1.6,0,0,1,.6.8,1.9,1.9,0,0,1,.2.8v3.3a2.9,2.9,0,0,1-.2.9,1.9,1.9,0,0,1-.6.7l-.8.5A1.5,1.5,0,0,1,98.1,133.1Zm0-7.4-.8.2-.6.4-.5.6a1.3,1.3,0,0,0-.1.6v3.3a1.3,1.3,0,0,0,.1.6c.1.3.3.4.5.6l.6.4.8.2.7-.2.7-.4a1.3,1.3,0,0,0,.4-.6,1.4,1.4,0,0,0,.2-.6v-3.3a1.4,1.4,0,0,0-.2-.6l-.4-.6-.7-.4Z" transform="translate(-29.8 -13.4)"/><path d="M105,133.1l-1.3-.2a3.9,3.9,0,0,1-1-.8,1.9,1.9,0,0,1-.3-1h.5c0,.2.1.3.2.5a1,1,0,0,0,.4.5,2.5,2.5,0,0,0,1.5.5,1.9,1.9,0,0,0,1-.3,1.1,1.1,0,0,0,.7-.6,1.6,1.6,0,0,0,.3-.9,1.3,1.3,0,0,0-.1-.6l-.5-.6c-.1-.2-.4-.3-.6-.4h-3.1l.2-3.8h4.6v.5h-4.1v2.7H105a3.1,3.1,0,0,1,1.3.3,2.4,2.4,0,0,1,.9.8,2,2,0,0,1,0,2.4,2.4,2.4,0,0,1-.9.8A3.1,3.1,0,0,1,105,133.1Z" transform="translate(-29.8 -13.4)"/><path d="M111.8,133.1a1.6,1.6,0,0,1-1-.2l-.8-.5c-.3-.2-.4-.5-.6-.7a2.9,2.9,0,0,1-.2-.9v-3.3a1.9,1.9,0,0,1,.2-.8,2.4,2.4,0,0,1,.6-.8l.8-.5a1.6,1.6,0,0,1,1-.2,1.5,1.5,0,0,1,.9.2l.8.5a1.6,1.6,0,0,1,.6.8,1.9,1.9,0,0,1,.2.8v3.3a2.9,2.9,0,0,1-.2.9,1.9,1.9,0,0,1-.6.7l-.8.5A1.5,1.5,0,0,1,111.8,133.1Zm0-7.4-.8.2-.6.4-.5.6a1.3,1.3,0,0,0-.1.6v3.3a1.3,1.3,0,0,0,.1.6c.1.3.3.4.5.6l.6.4.8.2.7-.2.7-.4a1.3,1.3,0,0,0,.4-.6,1.4,1.4,0,0,0,.2-.6v-3.3a1.4,1.4,0,0,0-.2-.6,2.1,2.1,0,0,0-.4-.6l-.7-.4Z" transform="translate(-29.8 -13.4)"/><path d="M118.6,133.1a1.5,1.5,0,0,1-.9-.2l-.9-.5-.5-.7a1.5,1.5,0,0,1-.2-.9v-3.3a1.1,1.1,0,0,1,.2-.8,2.2,2.2,0,0,1,.5-.8l.9-.5a1.5,1.5,0,0,1,.9-.2,2,2,0,0,1,1,.2l.8.5.6.8a1.9,1.9,0,0,1,.2.8v3.3a2.9,2.9,0,0,1-.2.9l-.6.7-.8.5A2,2,0,0,1,118.6,133.1Zm0-7.4-.7.2-.7.4-.4.6a1.4,1.4,0,0,0-.2.6v3.3a1.4,1.4,0,0,0,.2.6,1.3,1.3,0,0,0,.4.6l.7.4.7.2.8-.2.6-.4c.2-.2.4-.3.5-.6a1.3,1.3,0,0,0,.1-.6v-3.3a1.3,1.3,0,0,0-.1-.6l-.5-.6-.6-.4Z" transform="translate(-29.8 -13.4)"/><path d="M125.5,133.1a1.8,1.8,0,0,1-1-.2l-.8-.5c-.3-.2-.4-.5-.6-.7a2.9,2.9,0,0,1-.2-.9v-3.3a1.9,1.9,0,0,1,.2-.8,2.4,2.4,0,0,1,.6-.8l.8-.5a1.6,1.6,0,0,1,1-.2,1.5,1.5,0,0,1,.9.2l.9.5a2.2,2.2,0,0,1,.5.8,1.1,1.1,0,0,1,.2.8v3.3a1.5,1.5,0,0,1-.2.9l-.5.7-.9.5A1.5,1.5,0,0,1,125.5,133.1Zm0-7.4-.8.2-.6.4-.5.6a1.3,1.3,0,0,0-.1.6v3.3a1.3,1.3,0,0,0,.1.6c.1.3.3.4.5.6l.6.4.8.2.7-.2.7-.4a1.3,1.3,0,0,0,.4-.6,1.4,1.4,0,0,0,.2-.6v-3.3a1.4,1.4,0,0,0-.2-.6l-.4-.6-.7-.4Z" transform="translate(-29.8 -13.4)"/><path d="M133.9,129.4v-.5h4.7v.5Z" transform="translate(-29.8 -13.4)"/><path d="M149.6,129.7a1.6,1.6,0,0,1,.4,1.2,2.5,2.5,0,0,1-.1.8l-.6.7-.8.5-1.1.2h-2.8v-7.8h2.2a2.8,2.8,0,0,1,1.8.6c.2.1.3.4.4.6a1.9,1.9,0,0,1,.2.7,2,2,0,0,1-.2.9,1.7,1.7,0,0,1-.6.6h.3A2.4,2.4,0,0,1,149.6,129.7Zm-4.5-1.1h2.7a1.3,1.3,0,0,0,.6-.5c.2-.2.2-.4.2-.8a1.1,1.1,0,0,0-.2-.7,1,1,0,0,0-.6-.5l-1-.2h-1.7Zm3.4,3.7a2.2,2.2,0,0,0,.7-.6,1.6,1.6,0,0,0,.3-.8,1.4,1.4,0,0,0-.3-.9,1.8,1.8,0,0,0-.7-.5,3.3,3.3,0,0,0-1.5-.3h-1.9v3.3h2.3Z" transform="translate(-29.8 -13.4)"/><path d="M152.7,131.1l-1,2h-.6l3.7-7.9,3.5,7.9h-.6l-.9-2Zm2.1-4.6-1.9,4h3.7Z" transform="translate(-29.8 -13.4)"/><path d="M165.1,125.3v.5h-3v7.3h-.6v-7.3h-3.1v-.5Z" transform="translate(-29.8 -13.4)"/><path d="M167.4,126.7v6.4h-.5v-7.9l5.4,6.4v-6.3h.5v7.9Z" transform="translate(-29.8 -13.4)"/><path d="M176.1,131.1l-1,2h-.6l3.7-7.9,3.5,7.9h-.6l-.9-2Zm2.1-4.6-1.9,4H180Z" transform="translate(-29.8 -13.4)"/><path d="M89.5,139.7v.5H86.4v7.3h-.5v-7.3H82.8v-.5Z" transform="translate(-29.8 -13.4)"/><path d="M91.3,147.5v-7.8h5v.5H91.8v3.1h3.5v.5H91.8v3.1h4.5v.6Z" transform="translate(-29.8 -13.4)"/><path d="M98.4,147.5v-7.8h.5v7.2h4.4v.6Z" transform="translate(-29.8 -13.4)"/><path d="M109.2,143.7a.4.4,0,0,1,.1-.3h.6a.5.5,0,0,1,0,.6h-.6A.4.4,0,0,1,109.2,143.7Zm0,2.5a.4.4,0,0,1,.1-.3h.6a.4.4,0,0,1,.1.3c0,.2,0,.2-.1.3l-.3.2-.3-.2C109.2,146.4,109.2,146.4,109.2,146.2Z" transform="translate(-29.8 -13.4)"/><path d="M118.5,147.5a1.5,1.5,0,0,1-.9-.2l-.9-.5-.5-.7a2.9,2.9,0,0,1-.2-.9v-3.3a1.9,1.9,0,0,1,.2-.8,2.2,2.2,0,0,1,.5-.8l.9-.5a1.5,1.5,0,0,1,.9-.2,1.8,1.8,0,0,1,1,.2l.8.5a2.4,2.4,0,0,1,.6.8,1.9,1.9,0,0,1,.2.8v3.3a2.9,2.9,0,0,1-.2.9c-.2.2-.3.5-.6.7l-.8.5A1.8,1.8,0,0,1,118.5,147.5Zm0-7.4-.7.2-.7.4-.4.6a1.4,1.4,0,0,0-.2.6v3.3a1.4,1.4,0,0,0,.2.6,1.3,1.3,0,0,0,.4.6l.7.4.7.2.8-.2.6-.4c.2-.2.4-.3.5-.6a1.3,1.3,0,0,0,.1-.6v-3.3a1.3,1.3,0,0,0-.1-.6l-.5-.6-.6-.4Z" transform="translate(-29.8 -13.4)"/><path d="M125.4,147.5l-1.3-.2a2.4,2.4,0,0,1-.9-.8,1.4,1.4,0,0,1-.4-1h.6a.9.9,0,0,0,.1.5l.4.5a2.5,2.5,0,0,0,1.5.5,2,2,0,0,0,1.1-.3,1.3,1.3,0,0,0,.7-.6,1.6,1.6,0,0,0,.3-.9,1.4,1.4,0,0,0-.2-.6l-.4-.6-.7-.4h-3.1l.3-3.8H128v.5h-4.1l-.2,2.7h1.7a2.8,2.8,0,0,1,1.3.3,3.9,3.9,0,0,1,1,.8,2.6,2.6,0,0,1,0,2.4,3.9,3.9,0,0,1-1,.8A2.8,2.8,0,0,1,125.4,147.5Z" transform="translate(-29.8 -13.4)"/><path d="M130.2,145.2h5.5v.6h-1.9v1.7h-.5v-1.7h-4.1l4-6.1h.6v5.7h-.5v-4.9Z" transform="translate(-29.8 -13.4)"/><path d="M136.5,142.1l2.9-2.7v8.1h-.6v-6.8l-2.3,2.2Z" transform="translate(-29.8 -13.4)"/><path d="M150.1,144.2a2.3,2.3,0,0,1,.3,1.1,1.5,1.5,0,0,1-.4,1.1,2.4,2.4,0,0,1-.9.8,2.8,2.8,0,0,1-1.3.3,2.5,2.5,0,0,1-1.2-.2l-.9-.7a4.1,4.1,0,0,1-.5-.9l.6-.4a1.9,1.9,0,0,0,.2.8,2.7,2.7,0,0,0,.8.7l1,.2,1-.2a2.7,2.7,0,0,0,.8-.7,1.7,1.7,0,0,0,0-1.6,2.7,2.7,0,0,0-.7-.8l-.6-.5.4-.4a1.3,1.3,0,0,0,.5-.6,1.3,1.3,0,0,0,.1-.6,1.2,1.2,0,0,0-.4-1,1.5,1.5,0,0,0-2.2,0,1.2,1.2,0,0,0-.4,1h-.6a1.7,1.7,0,0,1,.3-1,1.4,1.4,0,0,1,.8-.7,1.8,1.8,0,0,1,2,0,1.8,1.8,0,0,1,.8.7,1.7,1.7,0,0,1,.3,1,1.9,1.9,0,0,1-.2.8,2.1,2.1,0,0,1-.6.8h.2A3.4,3.4,0,0,1,150.1,144.2Z" transform="translate(-29.8 -13.4)"/><path d="M157,139.7l-4.1,7.8h-.6l3.8-7.3h-4.7v-.5Z" transform="translate(-29.8 -13.4)"/><path d="M163.3,145.2h5.6v.6H167v1.7h-.6v-1.7h-4.1l4.1-6.1h.6v5.7h-.6v-4.9Z" transform="translate(-29.8 -13.4)"/><path d="M174.9,144a2.8,2.8,0,0,1,.4,1.3,2.5,2.5,0,0,1-.4,1.1,2.4,2.4,0,0,1-.9.8,3.1,3.1,0,0,1-1.3.3,2.8,2.8,0,0,1-1.3-.3,3.9,3.9,0,0,1-1-.8,2.3,2.3,0,0,1-.3-1.1,2,2,0,0,1,.4-1.3,3.9,3.9,0,0,1,1-.8c-.2-.2-.5-.4-.6-.7a1.6,1.6,0,0,1-.3-.9,1.7,1.7,0,0,1,.3-1,2.7,2.7,0,0,1,.7-.8l1.1-.2,1,.2a3,3,0,0,1,.8.8,3,3,0,0,1,.2,1,1.5,1.5,0,0,1-.2.9,2.3,2.3,0,0,1-.7.7Zm-1.2,2.7a1.1,1.1,0,0,0,.7-.6,1.1,1.1,0,0,0,.3-.8,1.6,1.6,0,0,0-.3-.9,1.1,1.1,0,0,0-.7-.6,1.9,1.9,0,0,0-1-.3,1.7,1.7,0,0,0-1,.3,1.2,1.2,0,0,0-.8.6,1.6,1.6,0,0,0-.3.9,1.1,1.1,0,0,0,.3.8,1.2,1.2,0,0,0,.8.6,1.7,1.7,0,0,0,1,.3A1.9,1.9,0,0,0,173.7,146.7Zm-2.3-4.4.5.5.8.2.7-.2a1,1,0,0,0,.6-.5,1.9,1.9,0,0,0,.2-.7,2.4,2.4,0,0,0-.2-.8c-.1-.2-.3-.3-.6-.5l-.7-.2-.8.2c-.2.2-.4.3-.5.5a1.2,1.2,0,0,0-.2.8A1,1,0,0,0,171.4,142.3Z" transform="translate(-29.8 -13.4)"/><path d="M183.5,147.5a1.5,1.5,0,0,1-.9-.2l-.9-.5-.5-.7a1.5,1.5,0,0,1-.2-.9v-3.3a1.1,1.1,0,0,1,.2-.8,2.2,2.2,0,0,1,.5-.8l.9-.5a1.5,1.5,0,0,1,.9-.2,2,2,0,0,1,1,.2l.8.5.6.8a1.9,1.9,0,0,1,.2.8v3.3a2.9,2.9,0,0,1-.2.9l-.6.7-.8.5A2,2,0,0,1,183.5,147.5Zm0-7.4-.7.2-.7.4-.4.6a1.4,1.4,0,0,0-.2.6v3.3a1.4,1.4,0,0,0,.2.6,1.3,1.3,0,0,0,.4.6l.7.4.7.2.8-.2.6-.4c.2-.2.4-.3.5-.6a1.3,1.3,0,0,0,.1-.6v-3.3a1.3,1.3,0,0,0-.1-.6l-.5-.6-.6-.4Z" transform="translate(-29.8 -13.4)"/><path d="M188.6,145.2h5.5v.6h-1.9v1.7h-.5v-1.7h-4.2l4.1-6.1h.6v5.7h-.5v-4.9Z" transform="translate(-29.8 -13.4)"/><path d="M121.9,161.9a1.8,1.8,0,0,1-1-.2l-.8-.5-.6-.7a2.9,2.9,0,0,1-.2-.9v-3.3a1.9,1.9,0,0,1,.2-.8l.6-.8.8-.5a1.6,1.6,0,0,1,1-.2,1.5,1.5,0,0,1,.9.2l.9.5a2.2,2.2,0,0,1,.5.8,1.1,1.1,0,0,1,.2.8v3.3a1.5,1.5,0,0,1-.2.9l-.5.7-.9.5A1.5,1.5,0,0,1,121.9,161.9Zm0-7.4-.8.2-.6.4-.5.6a1.3,1.3,0,0,0-.1.6v3.3a1.3,1.3,0,0,0,.1.6c.1.3.3.4.5.6l.6.4.8.2.7-.2.7-.4a1.3,1.3,0,0,0,.4-.6,1.4,1.4,0,0,0,.2-.6v-3.3a1.4,1.4,0,0,0-.2-.6l-.4-.6-.7-.4Z" transform="translate(-29.8 -13.4)"/><path d="M130.9,158.6a2.3,2.3,0,0,1,.3,1.1,2.1,2.1,0,0,1-.4,1.1,2.4,2.4,0,0,1-.9.8,3.1,3.1,0,0,1-1.3.3,2.5,2.5,0,0,1-1.2-.2,2.2,2.2,0,0,1-.9-.7,4.1,4.1,0,0,1-.5-.9l.5-.4a1.1,1.1,0,0,0,.3.8,2.7,2.7,0,0,0,.8.7l1,.2,1-.2a1.6,1.6,0,0,0,.7-.7,1.1,1.1,0,0,0,.3-.8,1.9,1.9,0,0,0-.2-.8,2.7,2.7,0,0,0-.7-.8l-.6-.5.4-.4.5-.6c0-.2.1-.4.1-.6a1.2,1.2,0,0,0-.5-1,1.4,1.4,0,0,0-1-.5,1.6,1.6,0,0,0-1.1.5,1.2,1.2,0,0,0-.4,1h-.6a1.7,1.7,0,0,1,.3-1,1.6,1.6,0,0,1,.7-.7,2.3,2.3,0,0,1,1.1-.3,1.7,1.7,0,0,1,1,.3,1.8,1.8,0,0,1,.8.7,3,3,0,0,1,.2,1,1.9,1.9,0,0,1-.1.8l-.6.8h.1A2.6,2.6,0,0,1,130.9,158.6Z" transform="translate(-29.8 -13.4)"/><path d="M137.5,158.6a2.3,2.3,0,0,1,.3,1.1,2.1,2.1,0,0,1-.4,1.1,2.4,2.4,0,0,1-.9.8,3.1,3.1,0,0,1-1.3.3,2.5,2.5,0,0,1-1.2-.2,2.2,2.2,0,0,1-.9-.7,4.1,4.1,0,0,1-.5-.9l.5-.4a1.1,1.1,0,0,0,.3.8,2.7,2.7,0,0,0,.8.7l1,.2,1-.2a1.6,1.6,0,0,0,.7-.7,1.1,1.1,0,0,0,.3-.8,1.9,1.9,0,0,0-.2-.8,2.7,2.7,0,0,0-.7-.8l-.6-.5.4-.4.5-.6c0-.2.1-.4.1-.6a1.2,1.2,0,0,0-.5-1,1.4,1.4,0,0,0-1-.5,1.6,1.6,0,0,0-1.1.5,1.2,1.2,0,0,0-.4,1h-.6a1.7,1.7,0,0,1,.3-1,1.6,1.6,0,0,1,.7-.7,2.3,2.3,0,0,1,1.1-.3,1.7,1.7,0,0,1,1,.3,1.8,1.8,0,0,1,.8.7,3,3,0,0,1,.2,1,1.9,1.9,0,0,1-.1.8,4.2,4.2,0,0,1-.6.8h.1A2.6,2.6,0,0,1,137.5,158.6Z" transform="translate(-29.8 -13.4)"/><path d="M148.2,161.3v.6h-4.7l1.5-2.1,1.9-2.5a2.2,2.2,0,0,0,.4-1.3v-.2a1.4,1.4,0,0,0-.6-1,1.6,1.6,0,0,0-.9-.3h-.4a3.8,3.8,0,0,0-1.3.9l-.2.3a.1.1,0,0,0-.1.1l-.5-.3.4-.4.7-.7.9-.4h.5a2.8,2.8,0,0,1,1.2.4,2.2,2.2,0,0,1,.9,1.4v.3a2.4,2.4,0,0,1-.6,1.5l-2.7,3.8Z" transform="translate(-29.8 -13.4)"/><path d="M150.3,159.6h5.6v.6H154v1.7h-.6v-1.7h-4.1l4.1-6.1h.6v5.7h-.6v-4.9Z" transform="translate(-29.8 -13.4)"/><path d="M163.6,161.9H163l1.9-3.6-1.2.2a2.8,2.8,0,0,1-1.3-.3,2.4,2.4,0,0,1-.9-.8,1.7,1.7,0,0,1-.4-1.2,1.5,1.5,0,0,1,.4-1.1,1.8,1.8,0,0,1,.9-.8,3,3,0,0,1,2.6,0,2.5,2.5,0,0,1,1,.8,2,2,0,0,1,.3,1.1,3,3,0,0,1-.2,1Zm1.1-4.1a1.9,1.9,0,0,0,.8-.7,1.4,1.4,0,0,0,.3-.9,1.1,1.1,0,0,0-.3-.8,1.9,1.9,0,0,0-.8-.7l-1-.2-1,.2a2.7,2.7,0,0,0-.8.7,1.9,1.9,0,0,0-.2.8,2.4,2.4,0,0,0,.2.9,2.7,2.7,0,0,0,.8.7l1,.2Z" transform="translate(-29.8 -13.4)"/><path d="M170.1,154.1h.6c-.5.8-.8,1.6-1.1,2.1l-.8,1.4,1.2-.2a2.8,2.8,0,0,1,1.3.3,3.9,3.9,0,0,1,1,.8,2.3,2.3,0,0,1,.3,1.1,2.4,2.4,0,0,1-.3,1.2,3.9,3.9,0,0,1-1,.8,2.8,2.8,0,0,1-1.3.3,3.1,3.1,0,0,1-1.3-.3,2.4,2.4,0,0,1-.9-.8,1.7,1.7,0,0,1-.4-1.2,2.2,2.2,0,0,1,.3-1Zm-1.2,4-.7.7a1.9,1.9,0,0,0-.2.8,2.4,2.4,0,0,0,.2.9,1.6,1.6,0,0,0,.8.6,1.9,1.9,0,0,0,1,.3,2.3,2.3,0,0,0,1.1-.3,1.3,1.3,0,0,0,.7-.6,1.4,1.4,0,0,0,.3-.9,1.1,1.1,0,0,0-.3-.8l-.7-.7-1.1-.2Z" transform="translate(-29.8 -13.4)"/><path d="M180.5,161.9h-.7l1.9-3.6-1.2.2a3.1,3.1,0,0,1-1.3-.3,2.4,2.4,0,0,1-.9-.8,1.7,1.7,0,0,1-.4-1.2,1.5,1.5,0,0,1,.4-1.1,1.8,1.8,0,0,1,.9-.8,3.1,3.1,0,0,1,1.3-.3,2.8,2.8,0,0,1,1.3.3,2.5,2.5,0,0,1,1,.8,2,2,0,0,1,.3,1.1,1.6,1.6,0,0,1-.2,1Zm1.1-4.1.7-.7a1.4,1.4,0,0,0,.3-.9,1.1,1.1,0,0,0-.3-.8l-.7-.7-1.1-.2-1,.2a1.6,1.6,0,0,0-.7.7,1.1,1.1,0,0,0-.3.8,1.4,1.4,0,0,0,.3.9,1.6,1.6,0,0,0,.7.7l1,.2Z" transform="translate(-29.8 -13.4)"/><path d="M189.3,158.4a2.8,2.8,0,0,1,.4,1.3,2.5,2.5,0,0,1-.4,1.1,2.4,2.4,0,0,1-.9.8,3.1,3.1,0,0,1-1.3.3,2.8,2.8,0,0,1-1.3-.3,3.9,3.9,0,0,1-1-.8,2.3,2.3,0,0,1-.3-1.1,2,2,0,0,1,.4-1.3,3.9,3.9,0,0,1,1-.8c-.2-.2-.5-.4-.6-.7a1.6,1.6,0,0,1-.3-.9,1.7,1.7,0,0,1,.3-1,2.7,2.7,0,0,1,.7-.8l1.1-.2,1,.2.8.8a3,3,0,0,1,.2,1,1.5,1.5,0,0,1-.2.9,2.3,2.3,0,0,1-.7.7Zm-1.2,2.7a1.1,1.1,0,0,0,.7-.6,1.1,1.1,0,0,0,.3-.8,1.6,1.6,0,0,0-.3-.9,1.1,1.1,0,0,0-.7-.6,1.9,1.9,0,0,0-1-.3,1.7,1.7,0,0,0-1,.3,1.2,1.2,0,0,0-.8.6,1.6,1.6,0,0,0-.3.9,1.1,1.1,0,0,0,.3.8,1.2,1.2,0,0,0,.8.6,1.7,1.7,0,0,0,1,.3A1.9,1.9,0,0,0,188.1,161.1Zm-2.3-4.4a1.2,1.2,0,0,0,.5.5l.8.2.7-.2a1,1,0,0,0,.6-.5,1.9,1.9,0,0,0,.2-.7,2.4,2.4,0,0,0-.2-.8c-.1-.2-.3-.3-.6-.5l-.7-.2-.8.2-.5.5a1.2,1.2,0,0,0-.2.8A1,1,0,0,0,185.8,156.7Z" transform="translate(-29.8 -13.4)"/><path d="M58,179.4H53.4V183h-.6v-7.8h.6v3.6H58v-3.6h.5V183H58Z" transform="translate(-29.8 -13.4)"/><path d="M66.9,175.2v.6H63.8V183h-.5v-7.2H60.2v-.6Z" transform="translate(-29.8 -13.4)"/><path d="M75.2,175.2v.6H72.1V183h-.5v-7.2H68.5v-.6Z" transform="translate(-29.8 -13.4)"/><path d="M76.9,183v-7.8h2.8a2.8,2.8,0,0,1,1.3.3,2.4,2.4,0,0,1,.9.8,2.2,2.2,0,0,1,0,2.2,1.8,1.8,0,0,1-.9.8,2.8,2.8,0,0,1-1.3.3H77.5V183Zm.6-3.9h2.2a1.7,1.7,0,0,0,1-.3,1.1,1.1,0,0,0,.7-.6,1.2,1.2,0,0,0,0-1.6,1.1,1.1,0,0,0-.7-.6,1.6,1.6,0,0,0-1-.2H77.5Z" transform="translate(-29.8 -13.4)"/><path d="M89.2,180a1.7,1.7,0,0,1,.3,1,2.4,2.4,0,0,1-.2.8l-.6.7a3.4,3.4,0,0,1-2,.6,1.6,1.6,0,0,1-1-.2,1.9,1.9,0,0,1-.9-.4,1.8,1.8,0,0,1-.9-1.2l.5-.3a1.9,1.9,0,0,0,.7,1.1l.7.3.9.2a2.5,2.5,0,0,0,1.6-.5c.5-.4.7-.7.7-1.1a.9.9,0,0,0-.3-.7c-.1-.3-.3-.4-.6-.6l-1.4-.3h-.6l-.9-.3-1-.7a2.3,2.3,0,0,1-.3-1.1,2.4,2.4,0,0,1,.2-.8l.7-.7a1.9,1.9,0,0,1,.9-.4l1-.2a3.4,3.4,0,0,1,2,.6,2.8,2.8,0,0,1,.8,1.2l-.5.3a1.4,1.4,0,0,0-.2-.6l-.5-.5-.7-.3H85.8l-.7.3-.5.6a.8.8,0,0,0-.2.5,1.3,1.3,0,0,0,.3.8,1.8,1.8,0,0,0,.7.5l.6.2h1.8l.5.2A2.4,2.4,0,0,1,89.2,180Z" transform="translate(-29.8 -13.4)"/><path d="M91.4,179.3a.4.4,0,0,1,.1-.3h.6a.5.5,0,0,1,0,.6h-.6A.4.4,0,0,1,91.4,179.3Zm0,2.5a.4.4,0,0,1,.1-.3h.6a.5.5,0,0,1,0,.6h-.6A.4.4,0,0,1,91.4,181.8Z" transform="translate(-29.8 -13.4)"/><path d="M93.9,183l4.6-7.8h.7L94.6,183Z" transform="translate(-29.8 -13.4)"/><path d="M99.6,183l4.5-7.8h.7l-4.6,7.8Z" transform="translate(-29.8 -13.4)"/><path d="M106.7,183v-7.8h2.8l1.2.3a2.4,2.4,0,0,1,.9.8,1.7,1.7,0,0,1,0,2.2,1.8,1.8,0,0,1-.9.8l-1.2.3h-2.3V183Zm.5-3.9h2.3l.9-.3a1.2,1.2,0,0,0,.8-.6,1.7,1.7,0,0,0,0-1.6,1.2,1.2,0,0,0-.8-.6,1.5,1.5,0,0,0-.9-.2h-2.3Z" transform="translate(-29.8 -13.4)"/><path d="M113.8,181l-1,2h-.6l3.7-7.9,3.5,7.9h-.6l-.9-2Zm2.1-4.6-1.9,4.1h3.7Z" transform="translate(-29.8 -13.4)"/><path d="M125.7,183l-3.3-3.9h1a2.6,2.6,0,0,0,1.4-.3,1.8,1.8,0,0,0,.7-.5,1.6,1.6,0,0,0,.3-.9,1.2,1.2,0,0,0-.2-.8c-.2-.2-.4-.5-.7-.6a2,2,0,0,0-1.1-.3h-2.2V183h-.5v-7.8h2.7l1,.2.9.5a1.8,1.8,0,0,1,.5.7,2.4,2.4,0,0,1,.2.8,1.9,1.9,0,0,1-.4,1.2,2.8,2.8,0,0,1-.9.7l-.8.2h-.7l2.8,3.4Z" transform="translate(-29.8 -13.4)"/><path d="M128.5,183v-7.8h5v.6H129v3h3.6v.6H129V183Z" transform="translate(-29.8 -13.4)"/><path d="M138.5,183.1l-1.1-.2-1-.7a2.1,2.1,0,0,1-.6-1,2,2,0,0,1-.2-1.1v-4.9h.5v4.9a2.9,2.9,0,0,0,.2.9,2.2,2.2,0,0,0,.5.8,2.4,2.4,0,0,0,.8.6h1.9c.2-.2.5-.3.7-.6a2.4,2.4,0,0,0,.6-.8,2.9,2.9,0,0,0,.2-.9v-4.9h.5v4.9a2.7,2.7,0,0,1-.9,2.1l-.9.7Z" transform="translate(-29.8 -13.4)"/><path d="M151.2,183v-6.2l-3.5,5-3.5-5V183h-.5v-7.9l4,5.7,4-5.7V183Z" transform="translate(-29.8 -13.4)"/><path d="M153.5,182.6a.4.4,0,0,1,.1-.3h.6a.5.5,0,0,1,0,.6h-.6A.4.4,0,0,1,153.5,182.6Z" transform="translate(-29.8 -13.4)"/><path d="M156.3,183v-7.8h.5V183Z" transform="translate(-29.8 -13.4)"/><path d="M165.5,183h-2.8a4.6,4.6,0,0,1-2-.5,3.4,3.4,0,0,1-1.4-1.5,3.2,3.2,0,0,1-.5-1.9,3.3,3.3,0,0,1,.5-2,4,4,0,0,1,1.4-1.5,4.6,4.6,0,0,1,2-.5,4,4,0,0,1,1.5.3,7.1,7.1,0,0,1,1.4,1l-.4.4a2.3,2.3,0,0,0-1.2-.8,3.1,3.1,0,0,0-1.3-.3,3.3,3.3,0,0,0-1.7.4,3,3,0,0,0-1.2,1.3,3.1,3.1,0,0,0-.5,1.7,3.7,3.7,0,0,0,.5,1.7A3.4,3.4,0,0,0,161,182a3.4,3.4,0,0,0,1.7.5h2.2v-2.8h-2.5v-.6h3.1Z" transform="translate(-29.8 -13.4)"/><path d="M168.4,176.7V183h-.6v-7.9l5.4,6.5v-6.4h.6v7.9Z" transform="translate(-29.8 -13.4)"/><path d="M176.2,183v-7.8h.5V183Z" transform="translate(-29.8 -13.4)"/><path d="M184.1,180a1.8,1.8,0,0,1,.4,1,1.3,1.3,0,0,1-.3.8,1.3,1.3,0,0,1-.6.7,3.1,3.1,0,0,1-1.9.6,2,2,0,0,1-1.1-.2l-.9-.4a1.6,1.6,0,0,1-.8-1.2l.5-.3a1.4,1.4,0,0,0,.6,1.1l.8.3.9.2a3,3,0,0,0,1.6-.5,1.5,1.5,0,0,0,.6-1.1,1.4,1.4,0,0,0-.2-.7,2,2,0,0,0-.7-.6l-1.4-.3H181l-.9-.3a2.2,2.2,0,0,1-.9-.7,2.5,2.5,0,0,1-.4-1.1,1.3,1.3,0,0,1,.3-.8,1.3,1.3,0,0,1,.6-.7l.9-.4,1.1-.2a3.1,3.1,0,0,1,1.9.6,2.1,2.1,0,0,1,.8,1.2l-.5.3a1.4,1.4,0,0,0-.2-.6l-.4-.5-.8-.3h-1.7l-.8.3-.4.6c-.2.1-.2.3-.2.5a1.3,1.3,0,0,0,.3.8,1.5,1.5,0,0,0,.6.5l.6.2h1.9l.5.2A2,2,0,0,1,184.1,180Z" transform="translate(-29.8 -13.4)"/><path d="M186.3,179.4v-.6H191v.6Z" transform="translate(-29.8 -13.4)"/><path d="M195.3,183H193v-7.8h2.3a3.7,3.7,0,0,1,1.5.3,2.7,2.7,0,0,1,1.2.9,3.2,3.2,0,0,1,.8,1.2,3.9,3.9,0,0,1,0,3,3.2,3.2,0,0,1-.8,1.2,2.7,2.7,0,0,1-1.2.9A3.7,3.7,0,0,1,195.3,183Zm-1.7-.5h1.7a3.2,3.2,0,0,0,2.4-1.1l.6-1a4.3,4.3,0,0,0,0-2.6l-.6-1a3.3,3.3,0,0,0-2.4-1h-1.7Z" transform="translate(-29.8 -13.4)"/><path d="M200.6,183l3.8-7.2h-4v-.6h4.9l-3.7,7.3h4v.5Z" transform="translate(-29.8 -13.4)"/><path d="M207.2,182.6a.4.4,0,0,1,.1-.3h.6a.5.5,0,0,1,0,.6h-.6A.4.4,0,0,1,207.2,182.6Z" transform="translate(-29.8 -13.4)"/><path d="M213.3,183.1a4.2,4.2,0,0,1-2-.5,5.4,5.4,0,0,1-1.5-1.5,4.3,4.3,0,0,1,0-4,4,4,0,0,1,1.5-1.4,3.4,3.4,0,0,1,2-.6,2.8,2.8,0,0,1,1.5.4,4.2,4.2,0,0,1,1.4.9l-.4.4a3.2,3.2,0,0,0-1.2-.8,3.1,3.1,0,0,0-1.3-.3,3.7,3.7,0,0,0-1.8.4,3,3,0,0,0-1.2,1.3,3.1,3.1,0,0,0,0,3.4,3,3,0,0,0,1.2,1.3,3.7,3.7,0,0,0,1.8.4,3.5,3.5,0,0,0,1.4-.3,2.7,2.7,0,0,0,1.2-.9l.4.3a4.5,4.5,0,0,1-1.3,1.1A3.5,3.5,0,0,1,213.3,183.1Z" transform="translate(-29.8 -13.4)"/><path d="M221.6,183.1a4.6,4.6,0,0,1-2-.5,4,4,0,0,1-1.4-1.5,3.6,3.6,0,0,1,0-4,3.2,3.2,0,0,1,1.4-1.4,3.6,3.6,0,0,1,4,0,3.2,3.2,0,0,1,1.4,1.4,4.3,4.3,0,0,1,0,4,4,4,0,0,1-1.4,1.5A4.6,4.6,0,0,1,221.6,183.1Zm0-7.4a3.3,3.3,0,0,0-1.7.4,5.3,5.3,0,0,0-1.3,1.3,3.8,3.8,0,0,0,0,3.4,4,4,0,0,0,1.3,1.3,3.8,3.8,0,0,0,3.4,0,3,3,0,0,0,1.2-1.3,3.1,3.1,0,0,0,0-3.4,3.7,3.7,0,0,0-1.2-1.3A3.3,3.3,0,0,0,221.6,175.7Z" transform="translate(-29.8 -13.4)"/><path d="M234.8,183v-6.2l-3.5,5-3.5-5V183h-.5v-7.9l4,5.7,4-5.7V183Z" transform="translate(-29.8 -13.4)"/><polygon class="cls-1" points="75.8 17.2 75.8 17.3 66.8 11 69 7.3 71.1 3.7 73.3 0 73.3 0 74.1 5.8 75 11.5 75.8 17.2"/><polygon class="cls-2" points="88 41.2 84.4 43.9 80.9 46.6 80.2 47 78.9 48.1 77.3 49.2 73.7 51.9 70.1 54.6 66.6 57.3 43.7 41.4 43.8 41.2 47.2 38.7 50.8 36 54.4 33.3 58 30.6 61.5 28 65.1 25.3 65.1 25.3 65 25.2 61.7 19.8 59.6 16.3 54.2 7.4 64.7 14.7 72.2 19.9 76.7 23 82.9 27.3 80.8 31 78.7 34.8 78.5 35.2 76.6 38.5 75.1 41.2 88 41.2"/><path d="M125.8,50.1V37.2h1V50.1Z" transform="translate(-29.8 -13.4)"/><path d="M149.1,50.1h-5.4a7.8,7.8,0,0,1-3.7-.9,6.2,6.2,0,0,1-3.7-5.6,5.6,5.6,0,0,1,1-3.3,6.4,6.4,0,0,1,2.7-2.4,7.8,7.8,0,0,1,3.7-.9,7.3,7.3,0,0,1,3,.6,8.7,8.7,0,0,1,2.5,1.5l-.8.7a7.7,7.7,0,0,0-2.1-1.4,7.5,7.5,0,0,0-2.6-.4,7.1,7.1,0,0,0-3.2.7,5.2,5.2,0,0,0-2.3,2.1,4.7,4.7,0,0,0-.9,2.8,4.9,4.9,0,0,0,.9,2.8,5.9,5.9,0,0,0,2.3,2.1,7.1,7.1,0,0,0,3.2.7H148V44.6h-4.9v-.9h6Z" transform="translate(-29.8 -13.4)"/><path d="M160.3,39.6V50.1h-1.1V37l10.3,10.7V37.2h1V50.3Z" transform="translate(-29.8 -13.4)"/><path d="M180.9,50.1V37.2H182V50.1Z" transform="translate(-29.8 -13.4)"/><path d="M201.8,45.1a3,3,0,0,1,.5,1.6,2.3,2.3,0,0,1-.4,1.4,2.3,2.3,0,0,1-1.2,1.2,7.3,7.3,0,0,1-3.7,1,6.4,6.4,0,0,1-2-.3l-1.7-.7a3.5,3.5,0,0,1-1.6-2.1l1-.4a2.1,2.1,0,0,0,1.2,1.7l1.4.7,1.7.2a5.2,5.2,0,0,0,3.1-.9,2.1,2.1,0,0,0,1.2-1.8,1.5,1.5,0,0,0-.4-1.1,2.5,2.5,0,0,0-1.3-.9,6.7,6.7,0,0,0-2.7-.6h-1.1a5.8,5.8,0,0,1-1.7-.5,4.1,4.1,0,0,1-1.8-1.2,2.9,2.9,0,0,1-.6-1.7,2.3,2.3,0,0,1,.4-1.4,4.6,4.6,0,0,1,1.2-1.2l1.7-.7a6.4,6.4,0,0,1,2-.3,7.3,7.3,0,0,1,3.7,1,3.5,3.5,0,0,1,1.6,2.1l-1,.4a1.6,1.6,0,0,0-.3-.9,3.8,3.8,0,0,0-.9-.9l-1.4-.6-1.7-.2-1.7.2-1.4.6a3.8,3.8,0,0,0-.9.9,1.7,1.7,0,0,0-.3,1,2.1,2.1,0,0,0,.5,1.2,3.8,3.8,0,0,0,1.3.9,2,2,0,0,0,1.1.3l1.5.2h.8l1.2.2,1,.4A4.3,4.3,0,0,1,201.8,45.1Z" transform="translate(-29.8 -13.4)"/><path d="M134.9,56.6V57c0,.1-.1.1-.2.1h-1.9v4.8a.2.2,0,0,1-.2.2h-.3a.2.2,0,0,1-.2-.2V57.1h-2a.1.1,0,0,1-.1-.1v-.4h4.9Z" transform="translate(-29.8 -13.4)"/><path d="M126.6,56.6v5.3a.2.2,0,0,1-.2.2h-.3a.2.2,0,0,1-.2-.2V56.6h.7Z" transform="translate(-29.8 -13.4)"/><path d="M147.3,60.5a1.5,1.5,0,0,1-.1.7,1.2,1.2,0,0,1-.5.5,2.3,2.3,0,0,1-1.4.4h-.8l-.6-.3a1.8,1.8,0,0,1-.6-.9v-.2h.4c0-.1.1-.1.1,0s.1,0,.1.1a.7.7,0,0,0,.4.6l.4.2h.6a1.5,1.5,0,0,0,1-.3.8.8,0,0,0,.3-1.1l-.4-.3-.9-.2h-.5l-.6-.2a1.8,1.8,0,0,1-.7-.5,1.2,1.2,0,0,1-.2-.8,1.3,1.3,0,0,1,.1-.6,1.2,1.2,0,0,1,.5-.5l.6-.4h.8a2.4,2.4,0,0,1,1.4.5,1,1,0,0,1,.6.9h0l-.4.2h-.1a.1.1,0,0,1-.1-.1.4.4,0,0,0-.1-.3q0-.2-.3-.3l-.4-.3a2.4,2.4,0,0,0-1.2,0l-.4.3q-.3.1-.3.3a.4.4,0,0,0-.1.3.6.6,0,0,0,.1.4l.5.4h1.6l.4.2a1.5,1.5,0,0,1,.6.5A1,1,0,0,1,147.3,60.5Z" transform="translate(-29.8 -13.4)"/><path d="M155.8,57.9a2.7,2.7,0,0,0-1-1.1,3,3,0,0,0-2.9,0,3.6,3.6,0,0,0-1,1.1,2.6,2.6,0,0,0,0,2.8,2.7,2.7,0,0,0,1.1,1,2.3,2.3,0,0,0,1.4.4,2.5,2.5,0,0,0,1.4-.4,2.4,2.4,0,0,0,1-1,2.6,2.6,0,0,0,0-2.8Zm-3.5,3.3a2,2,0,0,1-.8-.8,2.2,2.2,0,0,1,0-2.2,1.6,1.6,0,0,1,.8-.8,2,2,0,0,1,1.1-.3,2.3,2.3,0,0,1,1.1.3,2,2,0,0,1,.8.8,2.2,2.2,0,0,1,0,2.2,3,3,0,0,1-.8.8A2.2,2.2,0,0,1,152.3,61.2Z" transform="translate(-29.8 -13.4)"/><path d="M163.3,56.6V57c0,.1-.1.1-.2.1h-2.9V59h2.3a.1.1,0,0,1,.1.1v.4a.1.1,0,0,1-.1.1h-2.3v2.3a.3.3,0,0,1-.1.2h-.4c-.1,0-.1-.1-.1-.2V56.6a.1.1,0,0,1,.1-.1h3.6Z" transform="translate(-29.8 -13.4)"/><path d="M181.1,56.7l-1.7,5.4a.1.1,0,0,1-.1.1h-.1l-1.4-3.7-1.4,3.7h-.1a.1.1,0,0,1-.1-.1l-1.7-5.4h0a.1.1,0,0,1,.1-.1h.4a.1.1,0,0,1,.1.1l1.2,3.9,1.4-3.5h.1a.1.1,0,0,1,.1.1l1.4,3.5,1.2-3.9a.1.1,0,0,1,.1-.1h.4a.1.1,0,0,1,.1.1Z" transform="translate(-29.8 -13.4)"/><path d="M171.4,56.6V57c0,.1,0,.1-.1.1h-2v4.8c0,.1,0,.2-.1.2h-.4c-.1,0-.1-.1-.1-.2V57.1h-2c-.1,0-.1,0-.1-.1v-.4a.1.1,0,0,1,.1-.1h4.6A.1.1,0,0,1,171.4,56.6Z" transform="translate(-29.8 -13.4)"/><path d="M186.1,56.5h-.3l-2.5,5.4a.1.1,0,0,0,.1.1.1.1,0,0,0,.1.1h.5l.6-1.3h2.6l.6,1.3h.5a.1.1,0,0,0,.1-.1c.1,0,.1-.1,0-.1Zm-.2,1.3,1.1,2.3h-2.1Z" transform="translate(-29.8 -13.4)"/><path d="M195.7,61.9h-.6c-.1,0-.1,0-.1-.1l-2.2-2.7c-.1,0-.1,0,0-.1a.1.1,0,0,1,.1-.1h1.6c.1-.1.3-.2.4-.4a.8.8,0,0,0,.2-.5,1.7,1.7,0,0,0-.2-.5l-.4-.3-.7-.2h-1.4v4.8c0,.1,0,.2-.1.2h-.4a.3.3,0,0,1-.1-.2V56.6h2.7l.7.4a.9.9,0,0,1,.3.5,1.4,1.4,0,0,1,.2.6,1.4,1.4,0,0,1-.3.9,2,2,0,0,1-.7.6h-.8Z" transform="translate(-29.8 -13.4)"/><path d="M199.9,57.1V59h2.3c.1,0,.1,0,.1.1v.4a.1.1,0,0,1-.1.1h-2.3v1.8h3c.1,0,.1.1.1.2v.3c0,.1,0,.2-.1.2h-3.5a.3.3,0,0,1-.1-.2V56.6h3.6a.1.1,0,0,1,.1.1V57c0,.1,0,.1-.1.1Z" transform="translate(-29.8 -13.4)"/><rect x="95.4" y="39.2" width="78.5" height="0.85"/><rect class="cls-3" x="84.2" y="187.4" width="60.1" height="60.12"/><rect x="84.2" y="187.4" width="2.4" height="2.4"/><rect x="86.6" y="187.4" width="2.4" height="2.4"/><rect x="89" y="187.4" width="2.4" height="2.4"/><rect x="91.4" y="187.4" width="2.4" height="2.4"/><rect x="93.8" y="187.4" width="2.4" height="2.4"/><rect x="96.2" y="187.4" width="2.4" height="2.4"/><rect x="98.6" y="187.4" width="2.4" height="2.4"/><rect x="103.4" y="187.4" width="2.4" height="2.4"/><rect x="110.6" y="187.4" width="2.4" height="2.4"/><rect x="113.1" y="187.4" width="2.4" height="2.4"/><rect x="117.9" y="187.4" width="2.4" height="2.4"/><rect x="127.5" y="187.4" width="2.4" height="2.4"/><rect x="129.9" y="187.4" width="2.4" height="2.4"/><rect x="132.3" y="187.4" width="2.4" height="2.4"/><rect x="134.7" y="187.4" width="2.4" height="2.4"/><rect x="137.1" y="187.4" width="2.4" height="2.4"/><rect x="139.5" y="187.4" width="2.4" height="2.4"/><rect x="141.9" y="187.4" width="2.4" height="2.4"/><rect x="84.2" y="189.8" width="2.4" height="2.4"/><rect x="98.6" y="189.8" width="2.4" height="2.4"/><rect x="105.8" y="189.8" width="2.4" height="2.4"/><rect x="108.2" y="189.8" width="2.4" height="2.4"/><rect x="122.7" y="189.8" width="2.4" height="2.4"/><rect x="127.5" y="189.8" width="2.4" height="2.4"/><rect x="141.9" y="189.8" width="2.4" height="2.4"/><rect x="84.2" y="192.2" width="2.4" height="2.4"/><rect x="89" y="192.2" width="2.4" height="2.4"/><rect x="91.4" y="192.2" width="2.4" height="2.4"/><rect x="93.8" y="192.2" width="2.4" height="2.4"/><rect x="98.6" y="192.2" width="2.4" height="2.4"/><rect x="108.2" y="192.2" width="2.4" height="2.4"/><rect x="113.1" y="192.2" width="2.4" height="2.4"/><rect x="115.5" y="192.2" width="2.4" height="2.4"/><rect x="127.5" y="192.2" width="2.4" height="2.4"/><rect x="132.3" y="192.2" width="2.4" height="2.4"/><rect x="134.7" y="192.2" width="2.4" height="2.4"/><rect x="137.1" y="192.2" width="2.4" height="2.4"/><rect x="141.9" y="192.2" width="2.4" height="2.4"/><rect x="84.2" y="194.6" width="2.4" height="2.4"/><rect x="89" y="194.6" width="2.4" height="2.4"/><rect x="91.4" y="194.6" width="2.4" height="2.4"/><rect x="93.8" y="194.6" width="2.4" height="2.4"/><rect x="98.6" y="194.6" width="2.4" height="2.4"/><rect x="113.1" y="194.6" width="2.4" height="2.4"/><rect x="115.5" y="194.6" width="2.4" height="2.4"/><rect x="122.7" y="194.6" width="2.4" height="2.4"/><rect x="127.5" y="194.6" width="2.4" height="2.4"/><rect x="132.3" y="194.6" width="2.4" height="2.4"/><rect x="134.7" y="194.6" width="2.4" height="2.4"/><rect x="137.1" y="194.6" width="2.4" height="2.4"/><rect x="141.9" y="194.6" width="2.4" height="2.4"/><rect x="84.2" y="197" width="2.4" height="2.4"/><rect x="89" y="197" width="2.4" height="2.4"/><rect x="91.4" y="197" width="2.4" height="2.4"/><rect x="93.8" y="197" width="2.4" height="2.4"/><rect x="98.6" y="197" width="2.4" height="2.4"/><rect x="105.8" y="197" width="2.4" height="2.4"/><rect x="110.6" y="197" width="2.4" height="2.4"/><rect x="115.5" y="197" width="2.4" height="2.4"/><rect x="117.9" y="197" width="2.4" height="2.4"/><rect x="122.7" y="197" width="2.4" height="2.4"/><rect x="127.5" y="197" width="2.4" height="2.4"/><rect x="132.3" y="197" width="2.4" height="2.4"/><rect x="134.7" y="197" width="2.4" height="2.4"/><rect x="137.1" y="197" width="2.4" height="2.4"/><rect x="141.9" y="197" width="2.4" height="2.4"/><rect x="84.2" y="199.4" width="2.4" height="2.4"/><rect x="98.6" y="199.4" width="2.4" height="2.4"/><rect x="108.2" y="199.4" width="2.4" height="2.4"/><rect x="113.1" y="199.4" width="2.4" height="2.4"/><rect x="127.5" y="199.4" width="2.4" height="2.4"/><rect x="141.9" y="199.4" width="2.4" height="2.4"/><rect x="84.2" y="201.8" width="2.4" height="2.4"/><rect x="86.6" y="201.8" width="2.4" height="2.4"/><rect x="89" y="201.8" width="2.4" height="2.4"/><rect x="91.4" y="201.8" width="2.4" height="2.4"/><rect x="93.8" y="201.8" width="2.4" height="2.4"/><rect x="96.2" y="201.8" width="2.4" height="2.4"/><rect x="98.6" y="201.8" width="2.4" height="2.4"/><rect x="103.4" y="201.8" width="2.4" height="2.4"/><rect x="108.2" y="201.8" width="2.4" height="2.4"/><rect x="113.1" y="201.8" width="2.4" height="2.4"/><rect x="117.9" y="201.8" width="2.4" height="2.4"/><rect x="122.7" y="201.8" width="2.4" height="2.4"/><rect x="127.5" y="201.8" width="2.4" height="2.4"/><rect x="129.9" y="201.8" width="2.4" height="2.4"/><rect x="132.3" y="201.8" width="2.4" height="2.4"/><rect x="134.7" y="201.8" width="2.4" height="2.4"/><rect x="137.1" y="201.8" width="2.4" height="2.4"/><rect x="139.5" y="201.8" width="2.4" height="2.4"/><rect x="141.9" y="201.8" width="2.4" height="2.4"/><rect x="103.4" y="204.2" width="2.4" height="2.4"/><rect x="108.2" y="204.2" width="2.4" height="2.4"/><rect x="110.6" y="204.2" width="2.4" height="2.4"/><rect x="115.5" y="204.2" width="2.4" height="2.4"/><rect x="84.2" y="206.6" width="2.4" height="2.4"/><rect x="86.6" y="206.6" width="2.4" height="2.4"/><rect x="91.4" y="206.6" width="2.4" height="2.4"/><rect x="93.8" y="206.6" width="2.4" height="2.4"/><rect x="98.6" y="206.6" width="2.4" height="2.4"/><rect x="105.8" y="206.6" width="2.4" height="2.4"/><rect x="108.2" y="206.6" width="2.4" height="2.4"/><rect x="110.6" y="206.6" width="2.4" height="2.4"/><rect x="113.1" y="206.6" width="2.4" height="2.4"/><rect x="117.9" y="206.6" width="2.4" height="2.4"/><rect x="122.7" y="206.6" width="2.4" height="2.4"/><rect x="127.5" y="206.6" width="2.4" height="2.4"/><rect x="141.9" y="206.6" width="2.4" height="2.4"/><rect x="89" y="209" width="2.4" height="2.4"/><rect x="101" y="209" width="2.4" height="2.4"/><rect x="105.8" y="209" width="2.4" height="2.4"/><rect x="113.1" y="209" width="2.4" height="2.4"/><rect x="120.3" y="209" width="2.4" height="2.4"/><rect x="129.9" y="209" width="2.4" height="2.4"/><rect x="132.3" y="209" width="2.4" height="2.4"/><rect x="134.7" y="209" width="2.4" height="2.4"/><rect x="137.1" y="209" width="2.4" height="2.4"/><rect x="139.5" y="209" width="2.4" height="2.4"/><rect x="89" y="211.4" width="2.4" height="2.4"/><rect x="91.4" y="211.4" width="2.4" height="2.4"/><rect x="93.8" y="211.4" width="2.4" height="2.4"/><rect x="96.2" y="211.4" width="2.4" height="2.4"/><rect x="98.6" y="211.4" width="2.4" height="2.4"/><rect x="101" y="211.4" width="2.4" height="2.4"/><rect x="103.4" y="211.4" width="2.4" height="2.4"/><rect x="108.2" y="211.4" width="2.4" height="2.4"/><rect x="110.6" y="211.4" width="2.4" height="2.4"/><rect x="115.5" y="211.4" width="2.4" height="2.4"/><rect x="117.9" y="211.4" width="2.4" height="2.4"/><rect x="120.3" y="211.4" width="2.4" height="2.4"/><rect x="125.1" y="211.4" width="2.4" height="2.4"/><rect x="127.5" y="211.4" width="2.4" height="2.4"/><rect x="132.3" y="211.4" width="2.4" height="2.4"/><rect x="134.7" y="211.4" width="2.4" height="2.4"/><rect x="141.9" y="211.4" width="2.4" height="2.4"/><rect x="105.8" y="213.8" width="2.4" height="2.4"/><rect x="108.2" y="213.8" width="2.4" height="2.4"/><rect x="110.6" y="213.8" width="2.4" height="2.4"/><rect x="117.9" y="213.8" width="2.4" height="2.4"/><rect x="120.3" y="213.8" width="2.4" height="2.4"/><rect x="127.5" y="213.8" width="2.4" height="2.4"/><rect x="134.7" y="213.8" width="2.4" height="2.4"/><rect x="137.1" y="213.8" width="2.4" height="2.4"/><rect x="139.5" y="213.8" width="2.4" height="2.4"/><rect x="141.9" y="213.8" width="2.4" height="2.4"/><rect x="86.6" y="216.3" width="2.4" height="2.4"/><rect x="93.8" y="216.3" width="2.4" height="2.4"/><rect x="96.2" y="216.3" width="2.4" height="2.4"/><rect x="98.6" y="216.3" width="2.4" height="2.4"/><rect x="101" y="216.3" width="2.4" height="2.4"/><rect x="105.8" y="216.3" width="2.4" height="2.4"/><rect x="113.1" y="216.3" width="2.4" height="2.4"/><rect x="117.9" y="216.3" width="2.4" height="2.4"/><rect x="122.7" y="216.3" width="2.4" height="2.4"/><rect x="127.5" y="216.3" width="2.4" height="2.4"/><rect x="141.9" y="216.3" width="2.4" height="2.4"/><rect x="84.2" y="218.7" width="2.4" height="2.4"/><rect x="86.6" y="218.7" width="2.4" height="2.4"/><rect x="89" y="218.7" width="2.4" height="2.4"/><rect x="93.8" y="218.7" width="2.4" height="2.4"/><rect x="96.2" y="218.7" width="2.4" height="2.4"/><rect x="105.8" y="218.7" width="2.4" height="2.4"/><rect x="110.6" y="218.7" width="2.4" height="2.4"/><rect x="117.9" y="218.7" width="2.4" height="2.4"/><rect x="120.3" y="218.7" width="2.4" height="2.4"/><rect x="125.1" y="218.7" width="2.4" height="2.4"/><rect x="132.3" y="218.7" width="2.4" height="2.4"/><rect x="139.5" y="218.7" width="2.4" height="2.4"/><rect x="84.2" y="221.1" width="2.4" height="2.4"/><rect x="86.6" y="221.1" width="2.4" height="2.4"/><rect x="89" y="221.1" width="2.4" height="2.4"/><rect x="91.4" y="221.1" width="2.4" height="2.4"/><rect x="98.6" y="221.1" width="2.4" height="2.4"/><rect x="101" y="221.1" width="2.4" height="2.4"/><rect x="103.4" y="221.1" width="2.4" height="2.4"/><rect x="108.2" y="221.1" width="2.4" height="2.4"/><rect x="115.5" y="221.1" width="2.4" height="2.4"/><rect x="117.9" y="221.1" width="2.4" height="2.4"/><rect x="120.3" y="221.1" width="2.4" height="2.4"/><rect x="127.5" y="221.1" width="2.4" height="2.4"/><rect x="132.3" y="221.1" width="2.4" height="2.4"/><rect x="134.7" y="221.1" width="2.4" height="2.4"/><rect x="137.1" y="221.1" width="2.4" height="2.4"/><rect x="139.5" y="221.1" width="2.4" height="2.4"/><rect x="141.9" y="221.1" width="2.4" height="2.4"/><rect x="84.2" y="223.5" width="2.4" height="2.4"/><rect x="91.4" y="223.5" width="2.4" height="2.4"/><rect x="93.8" y="223.5" width="2.4" height="2.4"/><rect x="96.2" y="223.5" width="2.4" height="2.4"/><rect x="110.6" y="223.5" width="2.4" height="2.4"/><rect x="129.9" y="223.5" width="2.4" height="2.4"/><rect x="134.7" y="223.5" width="2.4" height="2.4"/><rect x="137.1" y="223.5" width="2.4" height="2.4"/><rect x="141.9" y="223.5" width="2.4" height="2.4"/><rect x="84.2" y="225.9" width="2.4" height="2.4"/><rect x="93.8" y="225.9" width="2.4" height="2.4"/><rect x="96.2" y="225.9" width="2.4" height="2.4"/><rect x="98.6" y="225.9" width="2.4" height="2.4"/><rect x="101" y="225.9" width="2.4" height="2.4"/><rect x="103.4" y="225.9" width="2.4" height="2.4"/><rect x="108.2" y="225.9" width="2.4" height="2.4"/><rect x="113.1" y="225.9" width="2.4" height="2.4"/><rect x="115.5" y="225.9" width="2.4" height="2.4"/><rect x="122.7" y="225.9" width="2.4" height="2.4"/><rect x="125.1" y="225.9" width="2.4" height="2.4"/><rect x="127.5" y="225.9" width="2.4" height="2.4"/><rect x="129.9" y="225.9" width="2.4" height="2.4"/><rect x="132.3" y="225.9" width="2.4" height="2.4"/><rect x="137.1" y="225.9" width="2.4" height="2.4"/><rect x="139.5" y="225.9" width="2.4" height="2.4"/><rect x="103.4" y="228.3" width="2.4" height="2.4"/><rect x="105.8" y="228.3" width="2.4" height="2.4"/><rect x="108.2" y="228.3" width="2.4" height="2.4"/><rect x="122.7" y="228.3" width="2.4" height="2.4"/><rect x="132.3" y="228.3" width="2.4" height="2.4"/><rect x="137.1" y="228.3" width="2.4" height="2.4"/><rect x="139.5" y="228.3" width="2.4" height="2.4"/><rect x="84.2" y="230.7" width="2.4" height="2.4"/><rect x="86.6" y="230.7" width="2.4" height="2.4"/><rect x="89" y="230.7" width="2.4" height="2.4"/><rect x="91.4" y="230.7" width="2.4" height="2.4"/><rect x="93.8" y="230.7" width="2.4" height="2.4"/><rect x="96.2" y="230.7" width="2.4" height="2.4"/><rect x="98.6" y="230.7" width="2.4" height="2.4"/><rect x="108.2" y="230.7" width="2.4" height="2.4"/><rect x="110.6" y="230.7" width="2.4" height="2.4"/><rect x="115.5" y="230.7" width="2.4" height="2.4"/><rect x="122.7" y="230.7" width="2.4" height="2.4"/><rect x="127.5" y="230.7" width="2.4" height="2.4"/><rect x="132.3" y="230.7" width="2.4" height="2.4"/><rect x="141.9" y="230.7" width="2.4" height="2.4"/><rect x="84.2" y="233.1" width="2.4" height="2.4"/><rect x="98.6" y="233.1" width="2.4" height="2.4"/><rect x="105.8" y="233.1" width="2.4" height="2.4"/><rect x="108.2" y="233.1" width="2.4" height="2.4"/><rect x="110.6" y="233.1" width="2.4" height="2.4"/><rect x="113.1" y="233.1" width="2.4" height="2.4"/><rect x="115.5" y="233.1" width="2.4" height="2.4"/><rect x="117.9" y="233.1" width="2.4" height="2.4"/><rect x="120.3" y="233.1" width="2.4" height="2.4"/><rect x="122.7" y="233.1" width="2.4" height="2.4"/><rect x="132.3" y="233.1" width="2.4" height="2.4"/><rect x="139.5" y="233.1" width="2.4" height="2.4"/><rect x="84.2" y="235.5" width="2.4" height="2.4"/><rect x="89" y="235.5" width="2.4" height="2.4"/><rect x="91.4" y="235.5" width="2.4" height="2.4"/><rect x="93.8" y="235.5" width="2.4" height="2.4"/><rect x="98.6" y="235.5" width="2.4" height="2.4"/><rect x="103.4" y="235.5" width="2.4" height="2.4"/><rect x="113.1" y="235.5" width="2.4" height="2.4"/><rect x="117.9" y="235.5" width="2.4" height="2.4"/><rect x="120.3" y="235.5" width="2.4" height="2.4"/><rect x="122.7" y="235.5" width="2.4" height="2.4"/><rect x="125.1" y="235.5" width="2.4" height="2.4"/><rect x="127.5" y="235.5" width="2.4" height="2.4"/><rect x="129.9" y="235.5" width="2.4" height="2.4"/><rect x="132.3" y="235.5" width="2.4" height="2.4"/><rect x="84.2" y="237.9" width="2.4" height="2.4"/><rect x="89" y="237.9" width="2.4" height="2.4"/><rect x="91.4" y="237.9" width="2.4" height="2.4"/><rect x="93.8" y="237.9" width="2.4" height="2.4"/><rect x="98.6" y="237.9" width="2.4" height="2.4"/><rect x="103.4" y="237.9" width="2.4" height="2.4"/><rect x="110.6" y="237.9" width="2.4" height="2.4"/><rect x="115.5" y="237.9" width="2.4" height="2.4"/><rect x="120.3" y="237.9" width="2.4" height="2.4"/><rect x="122.7" y="237.9" width="2.4" height="2.4"/><rect x="125.1" y="237.9" width="2.4" height="2.4"/><rect x="127.5" y="237.9" width="2.4" height="2.4"/><rect x="139.5" y="237.9" width="2.4" height="2.4"/><rect x="141.9" y="237.9" width="2.4" height="2.4"/><rect x="84.2" y="240.3" width="2.4" height="2.4"/><rect x="89" y="240.3" width="2.4" height="2.4"/><rect x="91.4" y="240.3" width="2.4" height="2.4"/><rect x="93.8" y="240.3" width="2.4" height="2.4"/><rect x="98.6" y="240.3" width="2.4" height="2.4"/><rect x="105.8" y="240.3" width="2.4" height="2.4"/><rect x="108.2" y="240.3" width="2.4" height="2.4"/><rect x="110.6" y="240.3" width="2.4" height="2.4"/><rect x="113.1" y="240.3" width="2.4" height="2.4"/><rect x="115.5" y="240.3" width="2.4" height="2.4"/><rect x="117.9" y="240.3" width="2.4" height="2.4"/><rect x="125.1" y="240.3" width="2.4" height="2.4"/><rect x="132.3" y="240.3" width="2.4" height="2.4"/><rect x="134.7" y="240.3" width="2.4" height="2.4"/><rect x="137.1" y="240.3" width="2.4" height="2.4"/><rect x="139.5" y="240.3" width="2.4" height="2.4"/><rect x="141.9" y="240.3" width="2.4" height="2.4"/><rect x="84.2" y="242.7" width="2.4" height="2.4"/><rect x="98.6" y="242.7" width="2.4" height="2.4"/><rect x="103.4" y="242.7" width="2.4" height="2.4"/><rect x="108.2" y="242.7" width="2.4" height="2.4"/><rect x="120.3" y="242.7" width="2.4" height="2.4"/><rect x="127.5" y="242.7" width="2.4" height="2.4"/><rect x="129.9" y="242.7" width="2.4" height="2.4"/><rect x="132.3" y="242.7" width="2.4" height="2.4"/><rect x="137.1" y="242.7" width="2.4" height="2.4"/><rect x="139.5" y="242.7" width="2.4" height="2.4"/><rect x="141.9" y="242.7" width="2.4" height="2.4"/><rect x="84.2" y="245.1" width="2.4" height="2.4"/><rect x="86.6" y="245.1" width="2.4" height="2.4"/><rect x="89" y="245.1" width="2.4" height="2.4"/><rect x="91.4" y="245.1" width="2.4" height="2.4"/><rect x="93.8" y="245.1" width="2.4" height="2.4"/><rect x="96.2" y="245.1" width="2.4" height="2.4"/><rect x="98.6" y="245.1" width="2.4" height="2.4"/><rect x="103.4" y="245.1" width="2.4" height="2.4"/><rect x="108.2" y="245.1" width="2.4" height="2.4"/><rect x="113.1" y="245.1" width="2.4" height="2.4"/><rect x="117.9" y="245.1" width="2.4" height="2.4"/><rect x="122.7" y="245.1" width="2.4" height="2.4"/><rect x="125.1" y="245.1" width="2.4" height="2.4"/><rect x="134.7" y="245.1" width="2.4" height="2.4"/><rect x="141.9" y="245.1" width="2.4" height="2.4"/></svg>